<svg width="34" height="35" viewBox="0 0 34 35" fill="none" xmlns="http://www.w3.org/2000/svg">
<path d="M24.0782 26.7857L25.2116 26.1561C25.5152 25.9875 25.7637 25.735 25.9275 25.4288C26.0913 25.1227 26.1634 24.7758 26.1352 24.4297C26.1069 24.0836 25.9796 23.753 25.7684 23.4774C25.5572 23.2019 25.271 22.993 24.9442 22.8758C25.0811 22.431 25.0414 21.9506 24.8333 21.5343C24.6251 21.118 24.2646 20.798 23.8266 20.6407C23.9636 20.1959 23.9239 19.7155 23.7157 19.2992C23.5076 18.883 23.1471 18.5629 22.7091 18.4056C22.834 18.0004 22.8125 17.5641 22.6483 17.1732C22.4841 16.7822 22.1877 16.4614 21.8109 16.2668C22.011 15.6486 21.9874 14.9798 21.7441 14.3773L21.4749 13.7042C21.4202 13.5681 21.3142 13.459 21.1797 13.4005L33.6356 1.46357C33.7183 1.38428 33.7747 1.28146 33.797 1.16906C33.8194 1.05667 33.8066 0.940116 33.7605 0.835213C33.7144 0.730309 33.6371 0.642124 33.5392 0.582609C33.4412 0.523095 33.3274 0.495128 33.213 0.502501L16.0905 1.60718C15.8847 1.2373 15.5489 0.957008 15.1482 0.820617C14.7474 0.684227 14.3103 0.701453 13.9216 0.868957C13.5328 1.03646 13.2201 1.34232 13.044 1.72725C12.8679 2.11218 12.841 2.54878 12.9684 2.95244L16.841 15.2156L12.8372 17.084C12.6048 17.1933 12.4005 17.3542 12.2397 17.5544C12.079 17.7546 11.9661 17.9889 11.9096 18.2394L10.9636 22.4965L-0.00585938 29.0782L0.569075 30.0365L11.7445 23.3313C11.8095 23.2922 11.8659 23.2404 11.9103 23.1788C11.9546 23.1173 11.986 23.0474 12.0025 22.9733L13.0006 18.4818C13.0194 18.3983 13.057 18.3202 13.1106 18.2535C13.1642 18.1868 13.2323 18.1331 13.3098 18.0967L20.6568 14.6681L20.7065 14.7923C20.7894 14.9996 20.8301 15.2213 20.8261 15.4444C20.8222 15.6676 20.7737 15.8878 20.6836 16.0919C20.5934 16.2961 20.4634 16.4803 20.3011 16.6335C20.1389 16.7868 19.9476 16.9061 19.7386 16.9845L17.4072 17.8588C17.2758 17.9081 17.1677 18.0051 17.1045 18.1305C17.0413 18.2559 17.0276 18.4005 17.0662 18.5355C17.3525 19.5312 17.2957 20.5943 16.905 21.5539C16.5143 22.5135 15.8123 23.3139 14.9118 23.8264L14.5324 24.0432L15.0868 25.0136L15.4663 24.7968C16.395 24.2676 17.1575 23.4896 17.6678 22.5504C17.8782 22.9408 18.2262 23.2391 18.6443 23.3872C18.5073 23.832 18.547 24.3124 18.7552 24.7287C18.9633 25.145 19.3238 25.465 19.7618 25.6223C19.6619 25.9485 19.6559 26.2963 19.7445 26.6258C19.8332 26.9553 20.0129 27.2532 20.2631 27.4852L19.81 27.7872C19.7183 27.8485 19.6105 27.8811 19.5002 27.881H15.3684C15.2636 27.881 15.161 27.9104 15.0722 27.966L6.13191 33.5536L6.72423 34.5013L15.5286 28.9986H19.5002C19.8312 28.9989 20.1548 28.9009 20.43 28.717L20.9873 28.3455L22.3325 32.6054C22.4692 33.0373 22.7717 33.3972 23.1737 33.606C23.5756 33.8149 24.0441 33.8556 24.476 33.7192C24.9079 33.5828 25.268 33.2805 25.4771 32.8786C25.6862 32.4768 25.7272 32.0084 25.5911 31.5764L24.0782 26.7857ZM17.8624 14.7389L14.0341 2.61589C14.0098 2.53899 14.0016 2.45793 14.0098 2.37771C14.018 2.29749 14.0425 2.2198 14.0819 2.14942C14.1213 2.07904 14.1747 2.01746 14.2387 1.96847C14.3028 1.91949 14.3762 1.88413 14.4544 1.86457C14.6004 1.82831 14.7548 1.84901 14.8861 1.92245C15.0174 1.9959 15.1158 2.11658 15.1613 2.25998L18.9428 14.2347L17.8624 14.7389ZM19.7847 13.1895L16.473 2.70236L31.7567 1.71635L19.7847 13.1895ZM18.3561 20.1042C18.3794 19.6447 18.3474 19.1841 18.2608 18.7322L20.131 18.0308C20.5693 17.8678 20.9593 17.5967 21.2649 17.2427C21.3814 17.2953 21.4811 17.3792 21.5527 17.4851C21.6243 17.591 21.665 17.7148 21.6703 17.8425C21.6756 17.9702 21.6454 18.0969 21.5828 18.2085C21.5203 18.32 21.428 18.4119 21.3162 18.474L21.223 18.5258L21.2214 18.5266L18.4712 20.0544C18.4344 20.0745 18.3959 20.0911 18.3561 20.1042ZM19.0507 22.3452C18.9216 22.3053 18.8071 22.2284 18.7214 22.1239C18.6357 22.0195 18.5826 21.8922 18.5686 21.7578C18.5547 21.6234 18.5805 21.4879 18.6429 21.3681C18.7053 21.2483 18.8015 21.1494 18.9196 21.0838L19.0131 21.0318L19.0145 21.0311L21.7652 19.503C21.9251 19.4146 22.1136 19.3933 22.2892 19.4438C22.4648 19.4943 22.6132 19.6124 22.7018 19.7722C22.7903 19.932 22.8119 20.1204 22.7616 20.2961C22.7114 20.4717 22.5935 20.6203 22.4338 20.709L22.3405 20.7609L22.3389 20.7617L19.5884 22.2897C19.5073 22.3351 19.4178 22.3634 19.3253 22.3729C19.2328 22.3825 19.1394 22.3731 19.0507 22.3452ZM20.1683 24.5803C20.0392 24.5404 19.9247 24.4635 19.839 24.359C19.7533 24.2546 19.7001 24.1273 19.6862 23.9929C19.6722 23.8585 19.698 23.723 19.7604 23.6032C19.8228 23.4833 19.919 23.3845 20.0371 23.3189L20.1307 23.2669L20.132 23.2662L22.8828 21.7381C23.0427 21.6496 23.2312 21.6282 23.4069 21.6786C23.5826 21.7291 23.731 21.8472 23.8197 22.007C23.9083 22.1669 23.9298 22.3554 23.8795 22.5311C23.8291 22.7068 23.7111 22.8554 23.5513 22.9441L23.4581 22.9959L23.4564 22.9968L20.706 24.5248C20.6248 24.5702 20.5353 24.5985 20.4428 24.608C20.3504 24.6176 20.2569 24.6082 20.1683 24.5803ZM21.2858 26.8154C21.1567 26.7755 21.0422 26.6985 20.9565 26.5941C20.8708 26.4897 20.8177 26.3624 20.8037 26.228C20.7897 26.0936 20.8155 25.9581 20.8779 25.8382C20.9403 25.7184 21.0366 25.6196 21.1547 25.5539L21.2482 25.502L21.2495 25.5013L24.0003 23.9731C24.1602 23.8848 24.3487 23.8635 24.5243 23.9139C24.6999 23.9644 24.8483 24.0825 24.9368 24.2423C25.0254 24.4021 25.047 24.5905 24.9967 24.7662C24.9465 24.9419 24.8285 25.0904 24.6689 25.1792L21.8243 26.7595C21.7431 26.805 21.6535 26.8335 21.5608 26.8431C21.4682 26.8527 21.3746 26.8433 21.2858 26.8154ZM24.4776 32.3794C24.4385 32.45 24.3853 32.5117 24.3212 32.5608C24.2571 32.6098 24.1835 32.645 24.1051 32.6643C23.9591 32.7006 23.8047 32.6799 23.6734 32.6064C23.5421 32.533 23.4437 32.4123 23.3982 32.2689L22.0141 27.886C22.1367 27.8486 22.255 27.7985 22.3671 27.7364L23.0812 27.3397L24.5254 31.9129C24.55 31.9898 24.5585 32.0709 24.5503 32.1511C24.542 32.2314 24.5173 32.3091 24.4776 32.3794Z" fill="white"/>
<path d="M24.6448 14.5118L32.4663 11.1585L32.9066 12.1856L25.0851 15.5389L24.6448 14.5118Z" fill="white"/>
<path d="M26.3375 18.9136L26.7387 17.8709L34 20.6649L33.5988 21.7076L26.3375 18.9136Z" fill="white"/>
<path d="M27.8706 24.4231L28.5568 23.5414L33.5835 27.4531L32.8973 28.3349L27.8706 24.4231Z" fill="white"/>
<path d="M25.5359 28.2219L26.4399 27.5648L30.9088 33.7133L30.0047 34.3703L25.5359 28.2219Z" fill="white"/>
<path d="M7.12744 5.34357L7.95777 4.59593L12.987 10.1814L12.1566 10.929L7.12744 5.34357Z" fill="white"/>
<path d="M2.30249 11.0781L2.7171 10.041L11.0943 13.3901L10.6797 14.4272L2.30249 11.0781Z" fill="white"/>
<path d="M0.178833 16.6917L0.384473 15.5931L9.32597 17.2668L9.12033 18.3654L0.178833 16.6917Z" fill="white"/>
<path d="M1.27356 22.3059L7.97784 20.6264L8.24938 21.7103L1.5451 23.3899L1.27356 22.3059Z" fill="white"/>
<path d="M24.3371 7.0576L23.3659 5.73196L23.8183 4.49498C23.8562 4.39119 23.8625 4.27848 23.8364 4.1711C23.8103 4.06372 23.7529 3.96649 23.6716 3.89171C23.5902 3.81693 23.4885 3.76796 23.3793 3.75098C23.2701 3.734 23.1583 3.74977 23.0581 3.79631L21.9893 4.29274L20.9266 3.44688C20.8455 3.38225 20.7479 3.34149 20.6448 3.32919C20.5418 3.3169 20.4374 3.33354 20.3433 3.37725C20.2491 3.42096 20.1691 3.49003 20.112 3.57669C20.0549 3.66336 20.0231 3.76421 20.0201 3.86794L19.9811 5.22564L18.9124 5.722C18.8121 5.76856 18.728 5.8438 18.6705 5.93819C18.613 6.03259 18.5848 6.14191 18.5895 6.25232C18.5941 6.36274 18.6314 6.46929 18.6966 6.55852C18.7618 6.64774 18.852 6.71563 18.9558 6.75359L20.1928 7.20589L20.5795 8.80307C20.6061 8.91306 20.6655 9.01237 20.7497 9.08787C20.834 9.16337 20.9393 9.2115 21.0515 9.2259C21.0751 9.22889 21.0989 9.23039 21.1227 9.2304C21.2237 9.23036 21.3228 9.20295 21.4095 9.15107C21.4962 9.0992 21.5671 9.02481 21.6149 8.93581L22.3173 7.62681L23.7706 7.93443C23.8813 7.95787 23.9965 7.94714 24.101 7.90367C24.2055 7.86021 24.2943 7.78605 24.3557 7.691C24.4171 7.59596 24.4482 7.48452 24.4449 7.37141C24.4415 7.25831 24.404 7.14888 24.3371 7.0576ZM22.1387 6.44672C22.0204 6.42166 21.8972 6.43565 21.7876 6.48658C21.6779 6.53751 21.5878 6.62264 21.5306 6.72918L21.3216 7.11879L21.2087 6.65237C21.187 6.56297 21.1437 6.48029 21.0824 6.41168C21.0211 6.34306 20.9439 6.29062 20.8575 6.25901L20.6066 6.16727L20.7651 6.09374C20.8592 6.05002 20.9392 5.98096 20.9963 5.89429C21.0534 5.80762 21.0852 5.70677 21.0882 5.60305L21.1051 5.0172L21.5636 5.38212C21.6448 5.44674 21.7423 5.48748 21.8454 5.49978C21.9484 5.51208 22.0528 5.49545 22.1469 5.45176L22.3054 5.37809L22.2136 5.6291C22.1821 5.71549 22.1723 5.80835 22.1852 5.89942C22.1981 5.99049 22.2333 6.07697 22.2877 6.15117L22.5713 6.53826L22.1387 6.44672Z" fill="white"/>
</svg>
