<svg width="19" height="21" viewBox="0 0 19 21" fill="none" xmlns="http://www.w3.org/2000/svg">
<path d="M6.97444 5.20041C7.18569 4.51182 8.16047 4.51182 8.37171 5.20042L9.36071 8.42423C9.43181 8.65601 9.61324 8.83744 9.84502 8.90854L13.0688 9.89754C13.7574 10.1088 13.7574 11.0836 13.0688 11.2948L9.84502 12.2838C9.61324 12.3549 9.43181 12.5363 9.36071 12.7681L8.37171 15.9919C8.16046 16.6805 7.18569 16.6805 6.97444 15.9919L5.98545 12.7681C5.91434 12.5363 5.73292 12.3549 5.50114 12.2838L2.27732 11.2948C1.58873 11.0836 1.58873 10.1088 2.27732 9.89754L5.50114 8.90854C5.73292 8.83744 5.91434 8.65601 5.98545 8.42423L6.97444 5.20041Z" fill="#FCC1B6"/>
<path d="M12.8876 0.86755C12.9681 0.60523 13.3395 0.60523 13.4199 0.867551L13.7967 2.09567C13.8238 2.18397 13.8929 2.25308 13.9812 2.28017L15.2093 2.65693C15.4716 2.73741 15.4716 3.10875 15.2093 3.18922L13.9812 3.56598C13.8929 3.59307 13.8238 3.66219 13.7967 3.75048L13.4199 4.9786C13.3395 5.24092 12.9681 5.24092 12.8876 4.9786L12.5109 3.75048C12.4838 3.66219 12.4147 3.59307 12.3264 3.56598L11.0983 3.18922C10.8359 3.10875 10.8359 2.73741 11.0983 2.65693L12.3264 2.28017C12.4147 2.25308 12.4838 2.18397 12.5109 2.09567L12.8876 0.86755Z" fill="#FCC1B6"/>
<path d="M14.6147 13.616C14.7254 13.2553 15.236 13.2553 15.3466 13.616L15.8647 15.3046C15.9019 15.4261 15.9969 15.5211 16.1183 15.5583L17.807 16.0764C18.1677 16.187 18.1677 16.6976 17.807 16.8083L16.1183 17.3263C15.9969 17.3636 15.9019 17.4586 15.8647 17.58L15.3466 19.2687C15.236 19.6294 14.7254 19.6294 14.6147 19.2687L14.0967 17.58C14.0594 17.4586 13.9644 17.3636 13.843 17.3263L12.1543 16.8083C11.7936 16.6976 11.7936 16.187 12.1543 16.0764L13.843 15.5583C13.9644 15.5211 14.0594 15.4261 14.0967 15.3046L14.6147 13.616Z" fill="#FCC1B6"/>
</svg>
