<svg width="19" height="21" viewBox="0 0 19 21" fill="none" xmlns="http://www.w3.org/2000/svg">
<path d="M6.97444 5.47095C7.18569 4.78236 8.16047 4.78236 8.37171 5.47095L9.36071 8.69477C9.43181 8.92655 9.61324 9.10798 9.84502 9.17908L13.0688 10.1681C13.7574 10.3793 13.7574 11.3541 13.0688 11.5653L9.84502 12.5543C9.61324 12.6254 9.43181 12.8069 9.36071 13.0387L8.37171 16.2625C8.16046 16.9511 7.18569 16.9511 6.97444 16.2625L5.98545 13.0386C5.91434 12.8069 5.73292 12.6254 5.50114 12.5543L2.27732 11.5653C1.58873 11.3541 1.58873 10.3793 2.27732 10.1681L5.50114 9.17908C5.73292 9.10798 5.91434 8.92655 5.98545 8.69477L6.97444 5.47095Z" fill="#0B23F4"/>
<path d="M12.8877 1.13812C12.9682 0.875799 13.3395 0.875799 13.42 1.13812L13.7968 2.36624C13.8238 2.45454 13.893 2.52365 13.9813 2.55074L15.2094 2.9275C15.4717 3.00797 15.4717 3.37932 15.2094 3.45979L13.9813 3.83655C13.893 3.86364 13.8238 3.93275 13.7968 4.02105L13.42 5.24917C13.3395 5.51149 12.9682 5.51149 12.8877 5.24917L12.5109 4.02105C12.4839 3.93275 12.4147 3.86364 12.3264 3.83655L11.0983 3.45979C10.836 3.37932 10.836 3.00797 11.0983 2.9275L12.3264 2.55074C12.4147 2.52365 12.4839 2.45454 12.5109 2.36624L12.8877 1.13812Z" fill="#0B23F4"/>
<path d="M14.6148 13.8865C14.7255 13.5258 15.2361 13.5258 15.3467 13.8865L15.8648 15.5752C15.902 15.6966 15.9971 15.7916 16.1185 15.8289L17.8071 16.3469C18.1678 16.4576 18.1678 16.9682 17.8071 17.0788L16.1185 17.5969C15.9971 17.6341 15.902 17.7291 15.8648 17.8505L15.3467 19.5392C15.2361 19.8999 14.7255 19.8999 14.6148 19.5392L14.0968 17.8505C14.0595 17.7291 13.9645 17.6341 13.8431 17.5969L12.1544 17.0788C11.7937 16.9682 11.7937 16.4576 12.1544 16.3469L13.8431 15.8289C13.9645 15.7916 14.0595 15.6966 14.0968 15.5752L14.6148 13.8865Z" fill="#0B23F4"/>
</svg>
