<svg width="12" height="16" viewBox="0 0 12 16" fill="none" xmlns="http://www.w3.org/2000/svg">
<path d="M11.3571 5.80239C11.1601 5.99742 10.84 5.99792 10.643 5.80239L6.50505 1.70546V15.5C6.50505 15.776 6.27901 16 5.99998 16C5.72095 16 5.49491 15.776 5.49491 15.5V1.70546L1.35695 5.8019C1.15993 5.99742 0.839909 5.99742 0.642885 5.8019C0.445861 5.60637 0.445861 5.28984 0.642885 5.09481L5.64293 0.144774C5.83795 -0.0482597 6.16246 -0.0482597 6.35749 0.144774L11.3575 5.09481C11.5546 5.29034 11.5546 5.60687 11.3571 5.80239C11.5546 5.60687 11.1601 5.99742 11.3571 5.80239Z" fill="white"/>
</svg>
